<?xml version="1.0" encoding="UTF-8" standalone="no"?>
<svg
   xmlns:dc="http://purl.org/dc/elements/1.1/"
   xmlns:cc="http://creativecommons.org/ns#"
   xmlns:rdf="http://www.w3.org/1999/02/22-rdf-syntax-ns#"
   xmlns:svg="http://www.w3.org/2000/svg"
   xmlns="http://www.w3.org/2000/svg"
   xmlns:sodipodi="http://sodipodi.sourceforge.net/DTD/sodipodi-0.dtd"
   xmlns:inkscape="http://www.inkscape.org/namespaces/inkscape"
   width="100%"
   height="100%"
   viewBox="0 0 32 32"
   version="1.1"
   xml:space="preserve"
   style="fill-rule:evenodd;clip-rule:evenodd;stroke-linejoin:round;stroke-miterlimit:1.41421;"
   id="svg3766"
   sodipodi:docname="jade_hearts.svg"
   inkscape:export-filename="C:\Users\frontdesk\Downloads\jade_hearts.png"
   inkscape:export-xdpi="768"
   inkscape:export-ydpi="768"
   inkscape:version="0.92.3 (2405546, 2018-03-11)"><defs
   id="defs3770" /><sodipodi:namedview
   pagecolor="#ffffff"
   bordercolor="#666666"
   borderopacity="1"
   objecttolerance="10"
   gridtolerance="10"
   guidetolerance="10"
   inkscape:pageopacity="0"
   inkscape:pageshadow="2"
   inkscape:window-width="1136"
   inkscape:window-height="480"
   id="namedview3768"
   showgrid="false"
   inkscape:zoom="5.2149125"
   inkscape:cx="12.2334"
   inkscape:cy="6.0295799"
   inkscape:window-x="360"
   inkscape:window-y="162"
   inkscape:window-maximized="0"
   inkscape:current-layer="svg3766" />
<metadata
   id="metadata3755">
<rdf:RDF>

     <rdf:Description
   rdf:about="">
       <dc:title>Mutant Standard emoji v0.1.0</dc:title>
     </rdf:Description>

    <cc:work
   rdf:about="">
        <cc:license
   rdf:resource="http://creativecommons.org/licenses/by-nc-sa/4.0/" />
        <cc:attributionName>Dzuk</cc:attributionName>
        <cc:attributionURL>http://mutant.tech/</cc:attributionURL>
    </cc:work>

<cc:Work
   rdf:about=""><dc:format>image/svg+xml</dc:format><dc:type
     rdf:resource="http://purl.org/dc/dcmitype/StillImage" /><dc:title></dc:title></cc:Work></rdf:RDF>
</metadata>
<path
   d="m 12,28.171573 c 0,0 -4.3832363,-4.383236 -7.6080358,-7.608036 C 3.5003145,19.671888 3,18.463207 3,17.202867 c 0,-1.260339 0.5003145,-2.46902 1.3919642,-3.36067 7.076e-4,-7.07e-4 7.076e-4,-7.07e-4 0.00142,-0.0014 0.8916496,-0.89165 2.1003302,-1.391964 3.3606699,-1.391964 1.2603397,0 2.4690209,0.500314 3.3606699,1.391964 0.518006,0.518006 0.885281,0.885281 0.885281,0.885281 0,0 0.367275,-0.367275 0.885281,-0.885281 0.891649,-0.89165 2.10033,-1.391964 3.36067,-1.391964 1.260339,0 2.46902,0.500314 3.36067,1.391964 7.07e-4,7.08e-4 7.07e-4,7.08e-4 0.0014,0.0014 0.89165,0.89165 1.391964,2.100331 1.391964,3.36067 0,1.26034 -0.500314,2.469021 -1.391964,3.36067 C 16.383236,23.788337 12,28.171573 12,28.171573 Z"
   style="fill:#4ac925;fill-opacity:1;stroke:#000000;stroke-width:4;stroke-linejoin:miter;stroke-miterlimit:2;stroke-dasharray:none;stroke-opacity:1"
   id="path4589"
   inkscape:connector-curvature="0" /><path
   inkscape:connector-curvature="0"
   id="path4587"
   style="fill:none;fill-opacity:1;stroke:#000000;stroke-width:3.99995494;stroke-linecap:square;stroke-linejoin:miter;stroke-miterlimit:2;stroke-dasharray:none;stroke-opacity:1;paint-order:stroke fill markers"
   d="m 24,11.734605 c 0,0 -2.435142,-2.4350656 -4.226705,-4.2265723 -0.495363,-0.4953475 -0.773318,-1.1668185 -0.773318,-1.8669882 0,-0.7001698 0.277955,-1.3716409 0.773318,-1.8669883 3.93e-4,-3.931e-4 3.93e-4,-3.931e-4 7.86e-4,-7.863e-4 0.495363,-0.4953475 1.166855,-0.7732925 1.867047,-0.7732925 0.700193,0 1.371685,0.277945 1.867048,0.7732925 C 23.795958,4.0610432 24,4.2650791 24,4.2650791 c 0,0 0.204043,-0.2040359 0.491825,-0.4918092 0.495363,-0.4953475 1.166855,-0.7732925 1.867048,-0.7732925 0.700191,0 1.371684,0.277945 1.867047,0.7732925 3.93e-4,3.932e-4 3.93e-4,3.932e-4 7.86e-4,7.863e-4 0.495363,0.4953474 0.773317,1.1668185 0.773317,1.8669883 0,0.7001697 -0.277954,1.3716407 -0.773317,1.8669882 C 26.435143,9.2995394 24,11.734605 24,11.734605 Z" /><rect
   id="red_heart"
   x="0"
   y="0"
   width="32"
   height="32"
   style="fill:none;" /><path
   inkscape:connector-curvature="0"
   id="path3761"
   style="fill:#4ac925;fill-opacity:1;stroke-width:0.70765847"
   d="m 12,28.171573 c 0,0 -4.3832363,-4.383236 -7.6080358,-7.608036 C 3.5003145,19.671888 3,18.463207 3,17.202867 c 0,-1.260339 0.5003145,-2.46902 1.3919642,-3.36067 7.076e-4,-7.07e-4 7.076e-4,-7.07e-4 0.00142,-0.0014 0.8916496,-0.89165 2.1003302,-1.391964 3.3606699,-1.391964 1.2603397,0 2.4690209,0.500314 3.3606699,1.391964 0.518006,0.518006 0.885281,0.885281 0.885281,0.885281 0,0 0.367275,-0.367275 0.885281,-0.885281 0.891649,-0.89165 2.10033,-1.391964 3.36067,-1.391964 1.260339,0 2.46902,0.500314 3.36067,1.391964 7.07e-4,7.08e-4 7.07e-4,7.08e-4 0.0014,0.0014 0.89165,0.89165 1.391964,2.100331 1.391964,3.36067 0,1.26034 -0.500314,2.469021 -1.391964,3.36067 C 16.383236,23.788337 12,28.171573 12,28.171573 Z" /><path
   inkscape:connector-curvature="0"
   id="path3763"
   style="fill:#99f97c;fill-opacity:1;fill-rule:nonzero;stroke-width:0.70765847"
   d="m 6.4094984,14.020527 c 0.1514389,0.01415 0.2965089,0.05166 0.430964,0.123841 0.3198616,0.171253 0.5335744,0.503145 0.5576348,0.864758 0.00637,0.09412 0,0.188945 -0.019107,0.281648 -0.021937,0.110395 -0.062274,0.217251 -0.1188866,0.315616 -0.028306,0.04954 -0.060859,0.09483 -0.095534,0.140116 -0.036091,0.04317 -0.036091,0.04246 -0.075012,0.08421 -0.00142,0.0014 0.00566,-0.0064 0.00425,-0.0042 -0.035383,0.03609 -0.06935,0.07218 -0.1026105,0.110394 -0.1330398,0.157808 -0.2434345,0.331892 -0.3226922,0.523668 -0.2016827,0.486869 -0.1953138,1.046626 0.018399,1.528542 0.09058,0.204513 0.2165435,0.387797 0.36869,0.551266 1.1761284,1.20585 2.3812707,2.381978 3.5722591,3.572967 0.104734,0.111103 0.188945,0.234235 0.242727,0.377182 0.04671,0.12384 0.06935,0.256173 0.06793,0.387797 -0.0021,0.131625 -0.02831,0.263249 -0.07784,0.385674 -0.144362,0.353829 -0.476962,0.608586 -0.856974,0.653876 -0.11181,0.01345 -0.226451,0.0092 -0.3375531,-0.01345 -0.1287938,-0.02618 -0.2533417,-0.07643 -0.3637364,-0.147901 -0.048121,-0.03114 -0.091996,-0.06581 -0.1351628,-0.10261 C 7.9415789,22.491199 6.7774808,21.265534 5.5829533,20.071715 5.467605,19.952828 5.3572103,19.830403 5.2553075,19.700194 5.0316874,19.412177 4.8462809,19.094438 4.7068722,18.757593 4.464853,18.173067 4.3615349,17.532636 4.408948,16.901405 4.452823,16.305556 4.6304451,15.722446 4.9241233,15.202317 5.1045762,14.883163 5.3289039,14.588777 5.5879069,14.329066 l 0.041044,-0.03892 c 0.043167,-0.0368 0.087042,-0.07147 0.1351628,-0.10261 0.094826,-0.06086 0.1995597,-0.106857 0.3092467,-0.135163 0.073596,-0.01911 0.147193,-0.02831 0.2229124,-0.03326 0.056613,-7.08e-4 0.056613,-7.08e-4 0.1132254,0.0014 z" /><path
   d="m 24,11.734605 c 0,0 -2.435142,-2.4350656 -4.226705,-4.2265723 -0.495363,-0.4953475 -0.773318,-1.1668185 -0.773318,-1.8669882 0,-0.7001698 0.277955,-1.3716409 0.773318,-1.8669883 3.93e-4,-3.931e-4 3.93e-4,-3.931e-4 7.86e-4,-7.863e-4 0.495363,-0.4953475 1.166855,-0.7732925 1.867047,-0.7732925 0.700193,0 1.371685,0.277945 1.867048,0.7732925 C 23.795958,4.0610432 24,4.2650791 24,4.2650791 c 0,0 0.204043,-0.2040359 0.491825,-0.4918092 0.495363,-0.4953475 1.166855,-0.7732925 1.867048,-0.7732925 0.700191,0 1.371684,0.277945 1.867047,0.7732925 3.93e-4,3.932e-4 3.93e-4,3.932e-4 7.86e-4,7.863e-4 0.495363,0.4953474 0.773317,1.1668185 0.773317,1.8669883 0,0.7001697 -0.277954,1.3716407 -0.773317,1.8669882 C 26.435143,9.2995394 24,11.734605 24,11.734605 Z"
   style="fill:#4ac925;fill-opacity:1;stroke-width:0.39313915"
   id="path4577"
   inkscape:connector-curvature="0" /><path
   d="m 20.894152,3.8731257 c 0.08413,0.00786 0.164728,0.028699 0.239425,0.068798 0.177702,0.095138 0.296432,0.2795175 0.309799,0.4804085 0.0035,0.052287 0,0.1049664 -0.01062,0.1564668 -0.01219,0.061328 -0.0346,0.1206919 -0.06605,0.1753374 -0.01573,0.027519 -0.03381,0.05268 -0.05308,0.07784 -0.02005,0.023981 -0.02005,0.023588 -0.04167,0.046783 -7.86e-4,7.863e-4 0.0031,-0.00354 0.0024,-0.00236 -0.01966,0.020049 -0.03853,0.0401 -0.05701,0.061328 -0.07391,0.087669 -0.135241,0.1843793 -0.179273,0.2909184 -0.112047,0.2704754 -0.108509,0.5814436 0.01022,0.8491671 0.05032,0.1136155 0.120302,0.2154369 0.204829,0.3062505 0.653408,0.6698986 1.322934,1.3232855 1.984598,1.9849283 0.05818,0.061721 0.104969,0.1301269 0.134848,0.2095398 0.02595,0.068798 0.03853,0.1423141 0.03774,0.2154368 -0.0012,0.073123 -0.01573,0.1462455 -0.04325,0.2142574 -0.0802,0.1965665 -0.26498,0.3380944 -0.476099,0.3632549 -0.06212,0.00747 -0.125807,0.00511 -0.18753,-0.00747 C 22.631858,9.3494673 22.562661,9.321555 22.50133,9.2818481 22.4746,9.2645506 22.45022,9.2452871 22.42624,9.2248437 21.745312,8.5789268 21.098588,7.8980206 20.434958,7.2348053 20.370876,7.168759 20.309544,7.100747 20.252932,7.0284106 20.128698,6.8684054 20.025694,6.6918888 19.948245,6.5047575 19.813788,6.1800297 19.756389,5.8242444 19.78273,5.4735698 19.8071,5.1425519 19.905785,4.8186103 20.06894,4.5296577 20.169192,4.3523547 20.293819,4.1888114 20.43771,4.0445316 l 0.0228,-0.021622 c 0.02398,-0.020443 0.04836,-0.039707 0.07509,-0.057004 0.05268,-0.033809 0.110868,-0.059363 0.171805,-0.075088 0.04089,-0.010615 0.08177,-0.015726 0.123841,-0.018477 0.03145,-3.931e-4 0.03145,-3.931e-4 0.0629,7.863e-4 z"
   style="fill:#99f97c;fill-opacity:1;fill-rule:nonzero;stroke:#99f97c;stroke-width:0.39299557;stroke-miterlimit:1.41420996;stroke-dasharray:none;stroke-opacity:1"
   id="path4579"
   inkscape:connector-curvature="0" /></svg>