<?xml version="1.0" encoding="UTF-8" standalone="no"?>
<svg
   xmlns:dc="http://purl.org/dc/elements/1.1/"
   xmlns:cc="http://creativecommons.org/ns#"
   xmlns:rdf="http://www.w3.org/1999/02/22-rdf-syntax-ns#"
   xmlns:svg="http://www.w3.org/2000/svg"
   xmlns="http://www.w3.org/2000/svg"
   xmlns:sodipodi="http://sodipodi.sourceforge.net/DTD/sodipodi-0.dtd"
   xmlns:inkscape="http://www.inkscape.org/namespaces/inkscape"
   width="100%"
   height="100%"
   viewBox="0 0 32 32"
   version="1.1"
   xml:space="preserve"
   style="fill-rule:evenodd;clip-rule:evenodd;stroke-linecap:round;stroke-linejoin:round;stroke-miterlimit:1.5;"
   id="svg991"
   sodipodi:docname="jb_headpats.svg"
   inkscape:version="0.92.3 (2405546, 2018-03-11)"
   inkscape:export-filename="C:\Users\frontdesk\Downloads\jb_headpats.png"
   inkscape:export-xdpi="768"
   inkscape:export-ydpi="768"><defs
   id="defs995" /><sodipodi:namedview
   pagecolor="#ffffff"
   bordercolor="#666666"
   borderopacity="1"
   objecttolerance="10"
   gridtolerance="10"
   guidetolerance="10"
   inkscape:pageopacity="0"
   inkscape:pageshadow="2"
   inkscape:window-width="1600"
   inkscape:window-height="825"
   id="namedview993"
   showgrid="false"
   inkscape:zoom="10.429825"
   inkscape:cx="16.897655"
   inkscape:cy="27.91671"
   inkscape:window-x="-9"
   inkscape:window-y="-9"
   inkscape:window-maximized="1"
   inkscape:current-layer="svg991" />
<metadata
   id="metadata952">
<rdf:RDF>

     <rdf:Description
   rdf:about="">
       <dc:title>Mutant Standard emoji v0.1.0</dc:title>
     </rdf:Description>

    <cc:work
   rdf:about="">
        <cc:license
   rdf:resource="http://creativecommons.org/licenses/by-nc-sa/4.0/" />
        <cc:attributionName>Dzuk</cc:attributionName>
        <cc:attributionURL>http://mutant.tech/</cc:attributionURL>
    </cc:work>

<cc:Work
   rdf:about=""><dc:format>image/svg+xml</dc:format><dc:type
     rdf:resource="http://purl.org/dc/dcmitype/StillImage" /><dc:title></dc:title></cc:Work></rdf:RDF>
</metadata>
<path
   style="clip-rule:evenodd;fill:#202020;fill-opacity:1;fill-rule:evenodd;stroke:#000000;stroke-width:0.87419742;stroke-linecap:butt;stroke-linejoin:miter;stroke-miterlimit:2;stroke-dasharray:none;stroke-opacity:1"
   d="M 7.1924625,33.305333 C 3.98148,26.623935 4.1253436,16.037916 7.0834171,12.969885 6.1006513,12.837422 5.4408495,11.803601 4.331063,10.839093 8.563366,9.8218134 14.483609,6.7841469 18.858552,2.5790899 c 0.08686,1.2662881 -0.08851,2.517021 -0.396858,3.4798447 15.65705,0.7247079 13.240007,19.6909884 11.893994,27.2871344"
   id="path881"
   inkscape:connector-curvature="0"
   sodipodi:nodetypes="cccccc" /><rect
   id="headpats"
   x="4.0321507"
   y="2.1283312"
   width="27.974318"
   height="27.974318"
   style="fill:none;stroke-width:0.87419742" /><path
   inkscape:connector-curvature="0"
   id="path955"
   d="m 28.50968,19.612281 c 0,-2.78257 -1.104986,-5.450621 -3.072805,-7.418439 -1.966944,-1.966946 -4.634995,-3.0719311 -7.417566,-3.0719311 0,0 0,0 0,0 -2.782569,0 -5.45062,1.1049851 -7.417564,3.0719311 -1.9678189,1.967818 -3.0728045,4.635869 -3.0728045,7.418439 0,0.590084 0,1.175796 0,1.748395 0,3.862204 3.1313755,6.993579 6.9935795,6.993579 2.250185,0 4.743395,0 6.99358,0 3.862204,0 6.99358,-3.131375 6.99358,-6.993579 0,-0.572599 0,-1.158311 0,-1.748395 z"
   style="stroke-width:0.87419742" /><path
   inkscape:connector-curvature="0"
   id="path957"
   d="m 18.17142,7.3743902 0.15211,0.00263 0.151236,0.00437 0.151237,0.007 0.151236,0.00874 0.151236,0.00962 0.150363,0.012239 0.150361,0.013987 0.149488,0.015736 0.149488,0.017484 0.149488,0.020107 0.148613,0.020981 0.148614,0.023603 0.148613,0.024477 0.14774,0.0271 0.146865,0.027975 0.146864,0.030597 0.145992,0.031471 0.145991,0.034094 0.145991,0.035842 0.144242,0.03759 0.144243,0.038465 0.144243,0.041087 0.143368,0.042835 0.142494,0.044584 0.14162,0.045458 0.14162,0.04808 0.140746,0.048955 0.140746,0.051578 0.139871,0.053326 0.138124,0.0542 0.138997,0.055948 0.137249,0.058571 0.136375,0.059446 0.136374,0.061193 0.135501,0.062942 0.134626,0.064691 0.133753,0.066439 0.132878,0.067313 0.132003,0.069936 0.132004,0.07081 0.130256,0.073432 0.129381,0.074306 0.129382,0.076055 0.127632,0.077804 0.127633,0.078677 0.125884,0.0813 0.125011,0.082174 0.124136,0.083923 0.123261,0.085671 0.122388,0.086545 0.121514,0.089168 0.120639,0.090043 0.118891,0.091791 0.11889,0.093539 0.117142,0.09441 0.116269,0.09616 0.11452,0.09791 0.11452,0.09966 0.111897,0.100533 0.111897,0.103155 0.111024,0.103155 0.109274,0.105778 0.1084,0.106652 0.106652,0.108401 0.104905,0.109275 0.104029,0.110149 0.102281,0.111897 0.101407,0.112771 0.09878,0.11452 0.09791,0.11452 0.09704,0.116269 0.09441,0.117142 0.09354,0.118016 0.09179,0.119766 0.09004,0.12064 0.08829,0.120639 0.08742,0.122387 0.08567,0.123262 0.08392,0.124136 0.08217,0.125884 0.0813,0.125885 0.07868,0.126758 0.0778,0.128508 0.07605,0.128507 0.07431,0.130255 0.07256,0.130256 0.07168,0.13113 0.06906,0.132878 0.06819,0.132878 0.06644,0.133751 0.06469,0.134627 0.06294,0.135501 0.06119,0.1355 0.05945,0.13725 0.0577,0.137248 0.05682,0.138123 0.0542,0.138998 0.05333,0.139872 0.0507,0.139871 0.04983,0.140745 0.04721,0.141621 0.04633,0.142494 0.04459,0.142494 0.04284,0.143368 0.04021,0.143368 0.03933,0.144244 0.03759,0.145117 0.03496,0.145116 0.0341,0.145991 0.03235,0.146865 0.0306,0.146865 0.02798,0.146866 0.0271,0.147738 0.02447,0.14774 0.0236,0.148614 0.02098,0.149488 0.01923,0.148613 0.01749,0.150362 0.01661,0.149488 0.01398,0.150362 0.01137,0.150362 0.01049,0.151236 0.0088,0.151236 0.0061,0.151236 0.0052,0.151236 0.0026,0.15211 8.74e-4,0.145991 v 1.759761 l -8.74e-4,0.107526 -0.0017,0.111897 -0.0035,0.111897 -0.0052,0.111898 -0.0061,0.111022 -0.0078,0.111023 -0.0088,0.111024 -0.01137,0.110148 -0.01137,0.109275 -0.01312,0.110149 -0.01486,0.109274 -0.01574,0.108401 -0.01749,0.108401 -0.01836,0.1084 -0.02011,0.107527 -0.02098,0.106652 -0.02273,0.106652 -0.0236,0.105777 -0.02535,0.105779 -0.02623,0.104903 -0.0271,0.104903 -0.02972,0.10403 -0.02972,0.104029 -0.03147,0.103156 -0.03235,0.102281 -0.0341,0.102282 -0.03496,0.101406 -0.03584,0.100533 -0.03759,0.100533 -0.03847,0.09966 -0.04021,0.09878 -0.04109,0.09878 -0.04196,0.09791 -0.04284,0.09704 -0.04458,0.09616 -0.04546,0.09616 -0.04633,0.09529 -0.04808,0.09441 -0.04896,0.09441 -0.04982,0.09354 -0.0507,0.09266 -0.05245,0.09179 -0.05333,0.09092 -0.0542,0.09092 -0.05508,0.08917 -0.05682,0.08917 -0.05682,0.08829 -0.05857,0.08742 -0.05945,0.08742 -0.06031,0.08567 -0.06119,0.0848 -0.06294,0.0848 -0.06294,0.08392 -0.06469,0.08305 -0.06469,0.08217 -0.06644,0.08043 -0.06731,0.0813 -0.06819,0.07955 -0.06906,0.07868 -0.06994,0.0778 -0.07081,0.07693 -0.07256,0.07606 -0.07256,0.07606 -0.07343,0.07431 -0.07431,0.07343 -0.07518,0.07256 -0.07693,0.07168 -0.07693,0.07168 -0.0778,0.06994 -0.07868,0.06906 -0.07955,0.06819 -0.08043,0.06644 -0.0813,0.06644 -0.08217,0.06556 -0.08305,0.06469 -0.08392,0.06294 -0.08392,0.06207 -0.08567,0.06207 -0.08567,0.06031 -0.08742,0.05945 -0.08742,0.0577 -0.08829,0.0577 -0.08917,0.05682 -0.08917,0.05507 -0.09092,0.0542 -0.09092,0.05333 -0.09179,0.05158 -0.09267,0.05158 -0.09354,0.04982 -0.09354,0.04896 -0.09441,0.04721 -0.09616,0.04721 -0.09529,0.04545 -0.09704,0.04371 -0.09703,0.04371 -0.09791,0.04196 -0.09878,0.04108 -0.09878,0.03934 -0.09966,0.03934 -0.100533,0.03672 -0.100532,0.03672 -0.101407,0.03496 -0.102281,0.0341 -0.102281,0.03235 -0.103155,0.03147 -0.103156,0.02972 -0.104903,0.02884 -0.10403,0.02798 -0.105778,0.02623 -0.104903,0.02535 -0.106653,0.0236 -0.106652,0.02273 -0.106652,0.02098 -0.107526,0.0201 -0.108401,0.01836 -0.1084,0.01749 -0.1084,0.01574 -0.109275,0.01398 -0.109275,0.01399 -0.110149,0.01137 -0.110149,0.01049 -0.111023,0.0096 -0.111023,0.0078 -0.111023,0.0061 -0.111897,0.0044 -0.111898,0.0035 -0.111897,0.0026 -0.107526,8.73e-4 h -7.00407 l -0.107526,-8.73e-4 -0.111897,-0.0026 -0.111898,-0.0035 -0.111897,-0.0044 -0.111023,-0.0061 -0.111023,-0.0078 -0.111023,-0.0096 -0.110149,-0.01049 -0.110149,-0.01137 -0.109275,-0.01399 -0.109275,-0.01398 -0.1084,-0.01574 -0.1084,-0.01749 -0.108401,-0.01836 -0.107526,-0.0201 -0.106652,-0.02098 -0.106652,-0.02273 -0.106653,-0.0236 -0.104903,-0.02535 -0.105778,-0.02623 -0.104029,-0.02798 -0.10403,-0.02884 -0.104029,-0.02972 -0.103156,-0.03147 -0.102281,-0.03235 -0.102281,-0.0341 -0.101407,-0.03496 -0.100532,-0.03672 -0.100533,-0.03672 -0.09966,-0.03934 -0.09878,-0.03934 -0.09878,-0.04108 -0.09791,-0.04196 -0.09704,-0.04371 -0.09704,-0.04371 -0.09529,-0.04545 -0.09616,-0.04721 -0.09441,-0.04721 -0.09354,-0.04896 -0.09354,-0.04982 -0.09267,-0.05158 -0.09179,-0.05158 -0.09092,-0.05333 L 9.988115,28.83594 9.898947,28.78087 9.809779,28.72405 9.721485,28.66635 9.634065,28.60865 9.546645,28.5492 9.460974,28.48889 9.375303,28.42682 9.29138,28.36475 9.207457,28.30181 9.124408,28.23712 9.042233,28.17156 8.960933,28.10512 8.880507,28.03868 8.800955,27.97049 8.722277,27.90143 8.644473,27.83149 8.567544,27.75981 8.490614,27.68813 8.415433,27.61557 8.341126,27.54214 8.267694,27.46696 8.195136,27.39178 8.122577,27.31572 8.051767,27.23879 7.981831,27.16099 7.912769,27.08231 7.844582,27.00188 7.777269,26.92233 7.710831,26.84103 7.64614,26.75886 7.581449,26.67581 7.518507,26.59189 7.455565,26.50709 7.394372,26.42229 7.334052,26.33575 7.274607,26.2492 7.216036,26.16178 7.159213,26.07349 7.10239,25.98432 7.047316,25.89515 6.993116,25.80423 6.93979,25.71331 6.887338,25.62152 6.836634,25.52886 6.786805,25.43532 6.73785,25.34178 6.689769,25.24649 6.643436,25.1512 6.597977,25.05504 6.553393,24.95888 6.510558,24.86184 6.468597,24.76393 6.42751,24.66515 6.387297,24.56637 6.348832,24.46671 6.311242,24.366177 6.2754,24.265644 6.240432,24.164238 6.206338,24.061956 6.173992,23.959675 6.142521,23.856519 6.112799,23.75249 6.08395,23.64846 6.055975,23.543557 6.029749,23.438654 6.004397,23.332875 5.980794,23.227098 5.958065,23.120446 5.937084,23.012919 5.916977,22.905393 5.898619,22.797867 5.881135,22.689466 5.8654,22.581065 5.850538,22.471791 5.837425,22.361642 5.826061,22.252367 5.814697,22.142219 5.805957,22.031195 5.798087,21.920172 5.791967,21.808275 5.786717,21.697252 5.783227,21.585355 5.781477,21.472583 5.7806028,21.365932 v -1.758886 l 8.742e-4,-0.146866 0.00262,-0.15211 0.00525,-0.151236 0.00612,-0.151236 0.00874,-0.151236 0.01049,-0.151236 0.011364,-0.150362 0.013987,-0.150362 0.016609,-0.150362 0.017484,-0.149488 0.019232,-0.148613 0.020981,-0.149488 0.023603,-0.148614 0.024477,-0.14774 0.0271,-0.147738 0.027975,-0.146866 0.030597,-0.146865 0.032345,-0.146865 0.03322,-0.145116 0.035842,-0.145991 0.037591,-0.145117 0.039339,-0.144244 0.040213,-0.143368 0.042836,-0.143368 0.044584,-0.142494 0.046333,-0.142494 0.047207,-0.141621 0.049829,-0.140745 0.050704,-0.139871 0.053326,-0.139872 0.0542,-0.138998 0.056823,-0.138123 0.057697,-0.137248 0.059446,-0.13725 0.061194,-0.1355 0.062942,-0.135501 0.064691,-0.134627 0.066439,-0.133751 0.068187,-0.132878 0.069062,-0.132878 0.071685,-0.13113 0.072559,-0.130256 0.074307,-0.130255 0.076055,-0.128507 0.077804,-0.128508 0.078678,-0.126758 0.0813,-0.125885 0.082175,-0.12501 0.083923,-0.12501 0.085671,-0.123262 0.08742,-0.122387 0.088294,-0.121514 0.090043,-0.119765 0.091721,-0.119775 0.093539,-0.118017 0.094413,-0.117142 0.097036,-0.116269 0.09791,-0.11452 0.098793,-0.114519 0.1014069,-0.112772 0.1022811,-0.111897 0.1040295,-0.110149 0.1049037,-0.109275 0.1066521,-0.1084 0.1084005,-0.106653 0.1092747,-0.105777 0.111023,-0.103156 0.1110231,-0.103155 0.1136457,-0.100533 0.1136458,-0.09966 0.11452,-0.09791 0.116268,-0.09616 0.117142,-0.09441 0.118891,-0.093539 0.118891,-0.091791 0.120639,-0.090043 0.121514,-0.089168 0.122388,-0.086545 0.123261,-0.085671 0.124136,-0.083923 0.125011,-0.082174 0.125884,-0.0813 0.127633,-0.078678 0.127633,-0.077804 0.129381,-0.076055 0.129381,-0.074306 0.130256,-0.073432 0.132003,-0.07081 0.132004,-0.069936 0.132878,-0.067313 0.133752,-0.066439 0.134626,-0.064691 0.135502,-0.062942 0.136374,-0.061193 0.136375,-0.059445 0.137249,-0.058571 0.138997,-0.055948 0.138124,-0.0542 0.139871,-0.053327 0.140746,-0.051578 0.140745,-0.048955 0.141621,-0.04808 0.141619,-0.045458 0.142495,-0.044584 0.143368,-0.042835 0.144242,-0.041087 0.144244,-0.038465 0.144242,-0.03759 0.145991,-0.035842 0.145991,-0.034094 0.145991,-0.031471 0.146865,-0.030597 0.146865,-0.027975 0.147739,-0.0271 0.148614,-0.024477 0.148613,-0.023603 0.148614,-0.020981 0.149488,-0.020107 0.149488,-0.017484 0.149488,-0.015735 0.150361,-0.013987 0.150362,-0.012239 0.151236,-0.00962 0.151236,-0.00874 0.151237,-0.007 0.151236,-0.00437 0.15211,-0.00263 0.146865,-8.743e-4 h 0.01049 z m -0.26051,3.4967898 -0.108401,0.0017 -0.1084,0.0035 -0.108401,0.0044 -0.107526,0.0061 -0.108401,0.007 -0.107526,0.0087 -0.106652,0.01049 -0.107527,0.01136 -0.106652,0.01224 -0.106652,0.01399 -0.106652,0.01486 -0.105777,0.01661 -0.105779,0.01836 -0.105777,0.01836 -0.104904,0.02098 -0.104904,0.02098 -0.104903,0.0236 -0.10403,0.0236 -0.103155,0.02535 -0.10403,0.0271 -0.103156,0.02797 -0.10228,0.02885 -0.102281,0.0306 -0.102281,0.03147 -0.101407,0.03322 -0.101407,0.03409 -0.100533,0.03496 -0.09966,0.03672 -0.09966,0.03759 -0.09966,0.03934 -0.09878,0.04021 -0.09791,0.04109 -0.09791,0.04284 -0.09704,0.04371 -0.09704,0.04546 -0.09616,0.04545 -0.09529,0.04808 -0.09529,0.04808 -0.09441,0.04983 -0.09354,0.0507 -0.09354,0.05158 -0.09267,0.05333 -0.09179,0.0542 -0.09179,0.05594 -0.09092,0.05682 -0.09004,0.0577 -0.08917,0.05857 -0.08917,0.05945 -0.08742,0.06119 -0.08742,0.06294 -0.08655,0.06294 -0.08655,0.06469 -0.0848,0.06557 -0.0848,0.06644 -0.08305,0.06731 -0.08305,0.06906 -0.08218,0.06994 -0.0813,0.07081 -0.0813,0.07256 -0.07955,0.07256 -0.07868,0.07431 -0.07868,0.07518 -0.07693,0.07693 -0.07606,0.07693 -0.07606,0.0778 -0.07343,0.07955 -0.07343,0.07955 -0.07169,0.08043 -0.07169,0.0813 -0.06994,0.08217 -0.06819,0.08305 -0.06819,0.08392 -0.06644,0.0848 -0.06556,0.0848 -0.06469,0.08567 -0.06294,0.08742 -0.06207,0.08655 -0.06119,0.08829 -0.06032,0.08917 -0.05857,0.08917 -0.0577,0.09004 -0.05682,0.09092 -0.05507,0.09092 -0.0542,0.09267 -0.05333,0.09267 -0.05245,0.09267 -0.0507,0.09441 -0.04983,0.09441 -0.04808,0.09441 -0.04721,0.09616 -0.04633,0.09616 -0.04546,0.09616 -0.04371,0.09791 -0.041961,0.09704 -0.041961,0.09878 -0.040213,0.09878 -0.038465,0.09878 -0.038465,0.09966 -0.035842,0.100532 -0.035842,0.100533 -0.034094,0.101407 -0.032345,0.101407 -0.032345,0.101407 -0.030597,0.102281 -0.028848,0.103155 -0.027975,0.103155 -0.026226,0.103156 -0.025352,0.104029 -0.024477,0.10403 -0.022729,0.104903 -0.021855,0.104905 -0.020107,0.104903 -0.019232,0.105778 -0.018358,0.105777 -0.015735,0.105779 -0.015735,0.106652 -0.013987,0.105777 -0.012239,0.107527 -0.011364,0.106652 -0.00962,0.107526 -0.00874,0.107526 -0.00786,0.107527 -0.00612,0.1084 -0.00437,0.107527 -0.00349,0.1084 -0.00175,0.108401 -8.742e-4,0.114519 v 1.737031 l 8.742e-4,0.07431 8.742e-4,0.06819 0.00175,0.06731 0.00349,0.06731 0.00349,0.06731 0.00525,0.06644 0.00525,0.06731 0.00612,0.06643 0.007,0.06557 0.00787,0.06556 0.00874,0.06556 0.00962,0.06557 0.01049,0.06469 0.011364,0.06469 0.011364,0.06469 0.013113,0.06382 0.013113,0.06382 0.014862,0.06294 0.014862,0.06382 0.015736,0.06294 0.016609,0.06207 0.016609,0.06207 0.018358,0.06207 0.018358,0.06207 0.020107,0.06119 0.020107,0.06119 0.020981,0.06033 0.021855,0.06031 0.021855,0.05945 0.022729,0.05945 0.024477,0.05945 0.024477,0.05945 0.025352,0.0577 0.025352,0.05857 0.026226,0.0577 0.027975,0.0577 0.027975,0.05682 0.027975,0.05682 0.029722,0.05595 0.029722,0.05595 0.030597,0.05595 0.031471,0.05508 0.031471,0.0542 0.03234,0.0542 0.03322,0.0542 0.03409,0.05333 0.03409,0.05333 0.03497,0.05245 0.03584,0.05245 0.03672,0.05158 0.03672,0.0507 0.03759,0.0507 0.03847,0.0507 0.03847,0.04983 0.03934,0.04896 0.03934,0.04896 0.04109,0.04896 0.04109,0.04808 0.04109,0.04721 0.04196,0.04633 0.04284,0.04721 0.04371,0.04546 0.04371,0.04546 0.04371,0.04458 0.04546,0.04459 0.04546,0.04371 0.04546,0.04371 0.04633,0.04196 0.04721,0.04284 0.04721,0.04109 0.04808,0.04109 0.04808,0.04021 0.04895,0.04021 0.04983,0.03933 0.04983,0.03847 0.04983,0.03847 0.0507,0.03759 0.05158,0.03672 0.05158,0.03584 0.05245,0.03584 0.05245,0.03496 0.05333,0.03496 0.05333,0.03322 0.05333,0.03322 0.0542,0.03235 0.05507,0.03235 0.05507,0.03147 0.05595,0.03059 0.05507,0.02972 0.05682,0.02884 0.05682,0.02885 0.05682,0.02798 0.0577,0.0271 0.0577,0.0271 0.0577,0.02535 0.05857,0.02535 0.05945,0.02447 0.05857,0.0236 0.05945,0.0236 0.06032,0.02186 0.06032,0.02186 0.06032,0.02098 0.06119,0.02011 0.06119,0.01923 0.06207,0.01923 0.06119,0.01749 0.06207,0.01749 0.06294,0.01661 0.06294,0.01574 0.06294,0.01486 0.06382,0.01398 0.06382,0.01398 0.06382,0.01224 0.06469,0.01224 0.06382,0.01137 0.06556,0.0096 0.06469,0.0096 0.06557,0.0088 0.06644,0.0078 0.06557,0.0078 0.06644,0.0061 0.06644,0.0052 0.06731,0.0044 0.06731,0.0044 0.06731,0.0026 0.06731,0.0026 0.06819,8.74e-4 0.07343,8.74e-4 h 6.983089 l 0.07343,-8.74e-4 0.06819,-8.74e-4 0.06731,-0.0026 0.06731,-0.0026 0.06731,-0.0044 0.06731,-0.0044 0.06643,-0.0052 0.06644,-0.0061 0.06557,-0.0078 0.06644,-0.0078 0.06557,-0.0088 0.06469,-0.0096 0.06469,-0.0096 0.06469,-0.01137 0.06469,-0.01224 0.06382,-0.01224 0.06382,-0.01398 0.06382,-0.01398 0.06294,-0.01486 0.06294,-0.01574 0.06294,-0.01661 0.06207,-0.01749 0.06119,-0.01749 0.06207,-0.01923 0.06119,-0.01923 0.06119,-0.02011 0.06032,-0.02098 0.06032,-0.02186 0.06031,-0.02186 0.05945,-0.0236 0.05945,-0.0236 0.05857,-0.02447 0.05857,-0.02535 0.0577,-0.02535 0.0577,-0.0271 0.0577,-0.0271 0.05682,-0.02798 0.05682,-0.02885 0.05682,-0.02884 0.05508,-0.02972 0.05595,-0.03059 0.05508,-0.03147 0.05507,-0.03235 0.0542,-0.03235 0.05333,-0.03322 0.05333,-0.03322 0.05333,-0.03496 0.05245,-0.03496 0.05245,-0.03584 0.05158,-0.03584 0.05158,-0.03672 0.0507,-0.03759 0.04983,-0.03847 0.04982,-0.03847 0.04983,-0.03933 0.04896,-0.04021 0.04808,-0.04021 0.04808,-0.04109 0.04721,-0.04109 0.04721,-0.04284 0.04633,-0.04196 0.04546,-0.04371 0.04546,-0.04371 0.04546,-0.04459 0.04371,-0.04458 0.04458,-0.04546 0.04284,-0.04546 0.04284,-0.04633 0.04196,-0.04721 0.04109,-0.04721 0.04109,-0.04808 0.04109,-0.04896 0.03933,-0.04896 0.03933,-0.04896 0.03847,-0.04983 0.03847,-0.04983 0.03759,-0.05158 0.03672,-0.0507 0.03672,-0.05158 0.03584,-0.05245 0.03496,-0.05245 0.03409,-0.05333 0.0341,-0.05333 0.03322,-0.0542 0.03235,-0.0542 0.03147,-0.0542 0.03147,-0.05508 0.0306,-0.05595 0.02972,-0.05595 0.02972,-0.05595 0.02798,-0.05682 0.02798,-0.05682 0.0271,-0.0577 0.0271,-0.0577 0.02535,-0.05857 0.02535,-0.0577 0.02447,-0.05945 0.0236,-0.05945 0.0236,-0.05945 0.02186,-0.05945 0.02186,-0.06031 0.02098,-0.06033 0.02011,-0.06119 0.02011,-0.06119 0.01836,-0.06207 0.01836,-0.06207 0.01661,-0.06207 0.01661,-0.06207 0.01573,-0.06294 0.01486,-0.06382 0.01486,-0.06294 0.01312,-0.06382 0.01312,-0.06382 0.01137,-0.06469 0.01137,-0.06469 0.01049,-0.06469 0.0096,-0.06557 0.0088,-0.06556 0.0078,-0.06556 0.007,-0.06644 0.0061,-0.06557 0.0052,-0.06644 0.0052,-0.06731 0.0035,-0.06731 0.0035,-0.06731 0.0017,-0.06731 8.75e-4,-0.06819 8.74e-4,-0.07431 v -1.737015 l -8.74e-4,-0.114519 -0.0017,-0.108401 -0.0035,-0.107526 -0.0044,-0.108401 -0.0061,-0.1084 -0.0078,-0.107527 -0.0088,-0.107526 -0.0096,-0.107526 -0.01137,-0.106652 -0.01224,-0.106652 -0.01398,-0.106652 -0.01574,-0.106652 -0.01574,-0.105779 -0.01836,-0.105777 -0.01923,-0.105778 -0.0201,-0.104903 -0.02186,-0.104905 -0.02273,-0.104903 -0.02447,-0.10403 -0.02535,-0.104029 -0.02623,-0.103156 -0.02798,-0.103155 -0.02885,-0.103155 -0.03059,-0.102281 -0.03147,-0.101407 -0.03322,-0.101407 -0.0341,-0.101407 -0.03584,-0.100533 -0.03584,-0.100532 -0.03847,-0.09966 -0.03847,-0.09878 -0.04021,-0.09878 -0.04196,-0.09878 -0.04196,-0.09704 -0.04371,-0.09791 -0.04546,-0.09616 -0.04633,-0.09616 -0.04721,-0.09529 -0.04808,-0.09529 -0.04983,-0.09441 -0.0507,-0.09441 -0.05245,-0.09267 -0.05333,-0.09267 -0.0542,-0.09267 -0.05508,-0.09092 -0.05682,-0.09092 -0.0577,-0.09004 -0.05857,-0.08917 -0.06031,-0.08917 -0.06119,-0.08829 -0.06207,-0.08655 -0.06294,-0.08742 -0.06469,-0.08567 -0.06557,-0.0848 -0.06643,-0.0848 -0.06819,-0.08392 -0.06819,-0.08305 -0.06994,-0.08217 -0.07168,-0.0813 -0.07168,-0.08043 -0.07343,-0.07955 -0.07431,-0.07955 -0.07518,-0.0778 -0.07606,-0.07693 -0.07693,-0.07693 -0.07868,-0.07518 -0.07868,-0.07431 -0.07955,-0.07256 -0.08131,-0.07256 -0.0813,-0.07081 -0.08217,-0.06994 -0.08217,-0.06906 -0.08392,-0.06731 -0.0848,-0.06644 -0.0848,-0.06557 -0.08655,-0.06469 -0.08655,-0.06294 -0.08742,-0.06294 -0.08742,-0.06119 -0.08917,-0.05945 -0.08917,-0.05857 -0.09004,-0.05857 -0.09092,-0.05595 -0.09179,-0.05594 -0.09179,-0.0542 -0.09266,-0.05333 -0.09354,-0.05158 -0.09354,-0.0507 -0.09441,-0.04983 -0.09529,-0.04896 -0.09529,-0.04721 -0.09616,-0.04546 -0.09704,-0.04546 -0.09704,-0.04371 -0.09791,-0.04284 -0.09791,-0.04109 -0.09878,-0.04021 -0.09966,-0.03934 -0.09966,-0.03759 -0.09966,-0.03672 -0.100557,-0.03495 -0.101407,-0.03409 -0.101406,-0.03322 -0.102281,-0.03147 -0.102281,-0.0306 -0.102281,-0.02885 -0.103156,-0.02797 -0.104029,-0.0271 -0.103156,-0.02535 -0.104029,-0.0236 -0.104904,-0.0236 -0.104903,-0.02098 -0.104904,-0.02098 -0.105778,-0.01836 -0.105778,-0.01836 -0.105777,-0.01661 -0.106652,-0.01486 -0.106653,-0.01399 -0.106652,-0.01224 -0.107527,-0.01136 -0.106652,-0.01049 -0.107526,-0.0087 -0.108401,-0.007 -0.107526,-0.0061 -0.1084,-0.0044 -0.1084,-0.0035 -0.108401,-0.0018 -0.108401,-8.74e-4 z"
   style="stroke-width:0.87419742" /><path
   inkscape:connector-curvature="0"
   id="path966"
   style="fill:#b6b6b6;fill-opacity:1;stroke-width:0.87419742"
   d="m 28.50968,19.612281 c 0,-2.78257 -1.104986,-5.450621 -3.072805,-7.418439 -1.966944,-1.966946 -4.634995,-3.0719311 -7.417566,-3.0719311 0,0 0,0 0,0 -2.782569,0 -5.45062,1.1049851 -7.417564,3.0719311 -1.9678189,1.967818 -3.0728045,4.635869 -3.0728045,7.418439 0,0.590084 0,1.175796 0,1.748395 0,3.862204 3.1313755,6.993579 6.9935795,6.993579 2.250185,0 4.743395,0 6.99358,0 3.862204,0 6.99358,-3.131375 6.99358,-6.993579 0,-0.572599 0,-1.158311 0,-1.748395 z" /><path
   style="clip-rule:evenodd;fill:none;fill-rule:evenodd;stroke:#000000;stroke-width:0.79316634px;stroke-linecap:butt;stroke-linejoin:miter;stroke-miterlimit:1.41420996;stroke-opacity:1"
   d="M 13.474444,16.438253 C 13.548804,11.456175 12.4582,11.505748 12.4582,11.505748"
   id="path531"
   inkscape:connector-curvature="0" /><path
   sodipodi:nodetypes="cc"
   inkscape:connector-curvature="0"
   id="path897"
   d="m 24.145055,21.046191 c 2.259565,1.90343 1.216756,4.669626 0.619665,7.287216"
   style="clip-rule:evenodd;fill:none;fill-rule:evenodd;stroke:#000000;stroke-width:0.79316807px;stroke-linecap:butt;stroke-linejoin:miter;stroke-miterlimit:1.41420996;stroke-opacity:1" /><path
   style="clip-rule:evenodd;fill:none;fill-rule:evenodd;stroke:#000000;stroke-width:0.87419742;stroke-linecap:butt;stroke-linejoin:miter;stroke-miterlimit:1.41420996;stroke-dasharray:none;stroke-opacity:1"
   d="m 20.2686,20.249923 c -1.798848,-0.855606 -2.753394,-0.819745 -4.519068,-0.0124"
   id="path529"
   inkscape:connector-curvature="0"
   sodipodi:nodetypes="cc" /><circle
   cx="22.696901"
   cy="19.159321"
   style="clip-rule:evenodd;fill:#d30100;fill-opacity:1;fill-rule:evenodd;stroke:#000000;stroke-width:0.87419742;stroke-linejoin:round;stroke-miterlimit:1.41420996;stroke-dasharray:none;stroke-opacity:1;paint-order:stroke fill markers"
   id="circle168"
   r="2.7760823" /><path
   style="clip-rule:evenodd;fill:none;fill-rule:evenodd;stroke:#000000;stroke-width:0.79316634px;stroke-linecap:butt;stroke-linejoin:miter;stroke-miterlimit:1.41420996;stroke-opacity:1"
   d="m 11.918319,21.283272 c -2.2595554,1.903429 -1.21675,4.669626 -0.619661,7.287217"
   id="path512-7"
   inkscape:connector-curvature="0"
   sodipodi:nodetypes="cc" /><path
   inkscape:connector-curvature="0"
   id="path968"
   d="m 12.9105,22.245363 0.05857,0.01137 0.0577,0.01486 0.05595,0.01923 0.05508,0.0236 0.0542,0.02623 0.0507,0.0306 0.04983,0.03322 0.04633,0.03759 0.04459,0.03933 0.04109,0.04371 0.03847,0.04546 0.03496,0.04808 0.03235,0.0507 0.02798,0.05245 0.02447,0.0542 0.02098,0.05595 0.04284,0.131129 0.0201,0.05682 0.01923,0.05245 0.0201,0.05158 0.02098,0.0507 0.02186,0.0507 0.02273,0.04983 0.02447,0.04896 0.02448,0.04808 0.02535,0.04808 0.02623,0.04808 0.02798,0.04633 0.02798,0.04633 0.02885,0.04546 0.0306,0.04458 0.03059,0.04371 0.03147,0.04371 0.03235,0.04284 0.03322,0.04196 0.0341,0.04109 0.03409,0.04108 0.03584,0.04021 0.03584,0.03934 0.03672,0.03847 0.03759,0.03759 0.03847,0.03672 0.03933,0.03672 0.03933,0.03496 0.04021,0.03496 0.04109,0.0341 0.04196,0.03322 0.04196,0.03235 0.04284,0.03147 0.04371,0.0306 0.04371,0.02972 0.04459,0.02884 0.04545,0.02798 0.04546,0.02798 0.04633,0.02623 0.04633,0.02535 0.04721,0.02447 0.04808,0.0236 0.04808,0.02273 0.04896,0.02186 0.04896,0.02098 0.04983,0.02011 0.04982,0.01923 0.04983,0.01836 0.05158,0.01661 0.0507,0.01661 0.05158,0.01486 0.05245,0.01486 0.05158,0.01312 0.05333,0.01224 0.05245,0.01137 0.05333,0.0096 0.05333,0.0096 0.0542,0.0078 0.03409,0.0044 2.001038,-2.088457 2.178499,2.09108 0.0542,-0.007 0.0542,-0.0078 0.05333,-0.0096 0.05333,-0.0096 0.05245,-0.01137 0.05333,-0.01224 0.05158,-0.01312 0.05245,-0.01486 0.05158,-0.01486 0.0507,-0.01661 0.05158,-0.01661 0.04983,-0.01836 0.04982,-0.01923 0.04983,-0.02011 0.04896,-0.02098 0.04896,-0.02186 0.04808,-0.02273 0.04808,-0.0236 0.04721,-0.02447 0.04633,-0.02535 0.04633,-0.02623 0.04546,-0.02798 0.04546,-0.02798 0.04459,-0.02884 0.04371,-0.02972 0.04371,-0.0306 0.04284,-0.03147 0.04196,-0.03235 0.04196,-0.03322 0.04109,-0.0341 0.04021,-0.03497 0.03933,-0.03496 0.03933,-0.03672 0.03847,-0.03672 0.03759,-0.03759 0.03672,-0.03847 0.03584,-0.03933 0.03584,-0.04021 0.0341,-0.04109 0.0341,-0.04109 0.03322,-0.04196 0.03235,-0.04284 0.03147,-0.04371 0.03059,-0.04371 0.0306,-0.04458 0.02884,-0.04546 0.02798,-0.04633 0.0271,-0.04633 0.0271,-0.04808 0.02535,-0.04808 0.02447,-0.04808 0.02447,-0.04896 0.02273,-0.04983 0.02186,-0.0507 0.02098,-0.0507 0.02011,-0.05158 0.01923,-0.05245 0.02011,-0.05682 0.04284,-0.131129 0.02098,-0.05595 0.02447,-0.0542 0.02798,-0.05245 0.03235,-0.0507 0.03496,-0.04808 0.03847,-0.04546 0.04108,-0.04371 0.04459,-0.03933 0.04633,-0.03759 0.04983,-0.03322 0.05158,-0.0306 0.05333,-0.02623 0.05508,-0.0236 0.05595,-0.01923 0.0577,-0.01486 0.05857,-0.01137 0.05945,-0.007 0.05945,-0.0035 0.06031,8.75e-4 0.05945,0.0052 0.05857,0.0088 0.05857,0.01311 0.05682,0.01661 0.05595,0.02098 0.0542,0.02447 0.05333,0.02798 0.04983,0.03147 0.04896,0.03584 0.04546,0.03847 0.04284,0.04109 0.04021,0.04371 0.03672,0.04721 0.0341,0.04896 0.03059,0.05158 0.02623,0.05333 0.02273,0.05508 0.01923,0.05682 0.01574,0.0577 0.01137,0.05857 0.007,0.05945 0.0035,0.05945 -8.74e-4,0.05945 -0.0052,0.05945 -0.0088,0.05945 -0.01312,0.0577 -0.01661,0.0577 -0.04633,0.138998 -0.02798,0.0813 -0.03147,0.0848 -0.03322,0.0848 -0.0341,0.08305 -0.03584,0.08217 -0.03759,0.0813 -0.03847,0.08043 -0.04109,0.07955 -0.04108,0.0778 -0.04371,0.0778 -0.04459,0.07606 -0.04633,0.07518 -0.04721,0.07431 -0.04896,0.07343 -0.0507,0.07256 -0.05158,0.07081 -0.05245,0.06994 -0.0542,0.06906 -0.05594,0.06731 -0.05682,0.06643 -0.0577,0.06556 -0.05857,0.06382 -0.06031,0.06294 -0.06119,0.06119 -0.06294,0.06031 -0.06382,0.05945 -0.06469,0.0577 -0.06556,0.05682 -0.06644,0.05595 -0.06819,0.05333 -0.06906,0.05333 -0.06906,0.0507 -0.07168,0.0507 -0.07168,0.04808 -0.07256,0.04721 -0.07343,0.04633 -0.07431,0.04458 -0.07518,0.04284 -0.07693,0.04196 -0.07693,0.04021 -0.0778,0.03847 -0.07868,0.03672 -0.07955,0.03584 -0.08043,0.03496 -0.08043,0.03235 -0.08217,0.03147 -0.08217,0.02885 -0.08305,0.02884 -0.08392,0.02623 -0.08392,0.02447 -0.0848,0.0236 -0.08567,0.02186 -0.08654,0.01923 -0.08655,0.01836 -0.08655,0.01661 -0.08829,0.01573 -0.08742,0.01311 -0.08917,0.01137 -0.08829,0.0096 -0.09004,0.0078 -0.08917,0.0061 -0.09092,0.0052 -0.09004,0.0026 -0.08655,8.75e-4 h -0.355799 l -1.444174,-1.386478 -1.327906,1.386478 h -0.377653 l -0.08655,-8.75e-4 -0.09004,-0.0026 -0.09092,-0.0052 -0.08917,-0.0061 -0.09004,-0.0078 -0.08829,-0.0096 -0.08917,-0.01137 -0.08742,-0.01311 -0.08829,-0.01573 -0.08655,-0.01661 -0.08655,-0.01836 -0.08655,-0.01923 -0.08567,-0.02186 -0.0848,-0.0236 -0.08392,-0.02447 -0.08392,-0.02623 -0.08305,-0.02884 -0.08217,-0.02885 -0.08217,-0.03147 -0.08043,-0.03235 -0.08043,-0.03496 -0.07955,-0.03584 -0.07868,-0.03672 -0.0778,-0.03847 -0.07693,-0.04021 -0.07606,-0.04196 -0.07606,-0.04284 -0.07431,-0.04458 -0.07343,-0.04633 -0.07256,-0.04721 -0.07168,-0.04808 -0.07081,-0.0507 -0.06994,-0.0507 -0.06906,-0.05333 -0.06819,-0.05333 -0.06644,-0.05595 -0.06644,-0.05682 -0.06382,-0.0577 -0.06382,-0.05857 -0.06294,-0.06119 -0.06119,-0.06119 -0.06031,-0.06294 -0.05857,-0.06382 -0.05857,-0.06556 -0.05594,-0.06643 -0.05595,-0.06731 -0.0542,-0.06906 -0.05245,-0.06994 -0.05158,-0.07081 -0.0507,-0.07256 -0.04808,-0.07343 -0.04808,-0.07431 -0.04633,-0.07518 -0.04458,-0.07606 -0.04371,-0.0778 -0.04109,-0.0778 -0.04109,-0.07955 -0.03847,-0.08043 -0.03759,-0.0813 -0.03584,-0.08217 -0.03409,-0.08305 -0.03322,-0.0848 -0.03147,-0.0848 -0.02797,-0.0813 -0.04633,-0.138998 -0.01661,-0.0577 -0.01311,-0.0577 -0.0087,-0.05945 -0.0052,-0.05945 -8.74e-4,-0.05945 0.0035,-0.05945 0.007,-0.05945 0.01136,-0.05857 0.01573,-0.0577 0.01923,-0.05682 0.02273,-0.05508 0.02623,-0.05333 0.0306,-0.05158 0.03409,-0.04896 0.03672,-0.04721 0.04021,-0.04371 0.04284,-0.04109 0.04546,-0.03847 0.04895,-0.03584 0.04983,-0.03147 0.05333,-0.02798 0.0542,-0.02447 0.05595,-0.02098 0.05682,-0.01661 0.05857,-0.01311 0.05857,-0.0088 0.05945,-0.0052 0.06032,-8.75e-4 0.05945,0.0035 z"
   style="stroke-width:0.87419742" /><path
   inkscape:connector-curvature="0"
   id="path970"
   d="m 21.556312,17.86476 0.02972,0.0017 0.02972,0.0026 0.03059,0.0044 0.02972,0.0052 0.02884,0.0052 0.02972,0.007 0.02885,0.0088 0.02884,0.0088 2.622592,0.874198 0.02885,0.0096 0.02798,0.01137 0.02798,0.01224 0.0271,0.01311 0.02623,0.01312 0.0271,0.01486 0.02535,0.01574 0.02535,0.01661 0.02447,0.01749 0.02447,0.01836 0.02273,0.01923 0.02273,0.02011 0.02273,0.0201 0.02098,0.02186 0.0201,0.02186 0.0201,0.02273 0.01923,0.0236 0.01749,0.02361 0.01749,0.02535 0.01661,0.02535 0.01574,0.02535 0.01486,0.02623 0.01312,0.0271 0.01311,0.0271 0.01137,0.02798 0.01137,0.02798 0.0096,0.02885 0.0088,0.02884 0.0078,0.02885 0.007,0.02972 0.0061,0.02972 0.0052,0.02972 0.0035,0.02972 0.0026,0.0306 0.0017,0.02972 8.74e-4,0.02972 v 0.0306 l -0.0017,0.02972 -0.0026,0.0306 -0.0035,0.02972 -0.0044,0.02972 -0.0053,0.02972 -0.007,0.02972 -0.007,0.02885 -0.0088,0.02972 -0.0096,0.02798 -0.01049,0.02884 -0.01137,0.02798 -0.01224,0.0271 -0.01398,0.0271 -0.01398,0.02623 -0.01486,0.02623 -0.01661,0.02535 -0.01661,0.02535 -0.01836,0.02447 -0.01836,0.0236 -0.01923,0.02273 -0.02098,0.02273 -0.02098,0.02186 -0.02098,0.02011 -0.02273,0.02011 -0.0236,0.02011 -0.0236,0.01836 -0.02447,0.01749 -0.02448,0.01661 -0.02623,0.01661 -0.02623,0.01486 -0.02623,0.01398 -0.0271,0.01311 -0.02798,0.01224 -0.02798,0.01137 -0.02798,0.01049 -0.02885,0.0096 -0.02884,0.0088 -0.02885,0.007 -0.02972,0.007 -0.02972,0.0053 -0.02972,0.0044 -0.0306,0.0026 -0.02972,0.0026 -0.0306,8.74e-4 -0.02972,8.74e-4 -0.0306,-8.74e-4 -0.02972,-0.0026 -0.02972,-0.0026 -0.0306,-0.0035 -0.02972,-0.0052 -0.02885,-0.0061 -0.02972,-0.007 -0.02884,-0.0078 -0.02885,-0.0096 -2.622592,-0.874198 -0.02884,-0.0096 -0.02798,-0.01137 -0.02798,-0.01137 -0.0271,-0.01311 -0.02623,-0.01398 -0.0271,-0.01486 -0.02535,-0.01574 -0.02535,-0.01661 -0.02447,-0.01749 -0.02447,-0.01836 -0.02273,-0.01836 -0.02273,-0.02011 -0.02273,-0.02098 -0.02098,-0.02098 -0.02011,-0.02273 -0.02011,-0.02273 -0.01923,-0.02273 -0.01749,-0.02447 -0.01749,-0.02447 -0.01661,-0.02535 -0.01573,-0.02623 -0.01486,-0.02623 -0.01311,-0.0271 -0.01312,-0.0271 -0.01137,-0.02798 -0.01137,-0.02798 -0.0096,-0.02885 -0.0088,-0.02885 -0.0078,-0.02884 -0.007,-0.02972 -0.0061,-0.02884 -0.0052,-0.02972 -0.0035,-0.0306 -0.0026,-0.02972 -0.0017,-0.0306 -8.74e-4,-0.02972 v -0.03059 l 0.0017,-0.02972 0.0026,-0.03059 0.0035,-0.02972 0.0044,-0.02972 0.0052,-0.02972 0.007,-0.02972 0.007,-0.02884 0.0088,-0.02885 0.0096,-0.02884 0.01049,-0.02798 0.01137,-0.02798 0.01224,-0.02798 0.01398,-0.0271 0.01398,-0.02623 0.01486,-0.02623 0.01661,-0.02535 0.01661,-0.02447 0.01836,-0.02447 0.01836,-0.0236 0.01923,-0.0236 0.02098,-0.02186 0.02098,-0.02186 0.02098,-0.02098 0.02273,-0.02011 0.02361,-0.01923 0.0236,-0.01836 0.02447,-0.01836 0.02447,-0.01661 0.02623,-0.01574 0.02623,-0.01573 0.02623,-0.01398 0.0271,-0.01312 0.02798,-0.01224 0.02798,-0.01137 0.02798,-0.01049 0.02884,-0.0096 0.02885,-0.0078 0.02884,-0.0078 0.02972,-0.0061 0.02972,-0.0053 0.02972,-0.0044 0.03059,-0.0035 0.02972,-0.0026 0.03059,-8.74e-4 h 0.02972 z"
   style="fill:#fea60a;fill-opacity:1;stroke-width:0.87419742" /><circle
   cx="13.239289"
   cy="19.159321"
   style="clip-rule:evenodd;fill:#d30100;fill-opacity:1;fill-rule:evenodd;stroke:#000000;stroke-width:0.87419742;stroke-linejoin:round;stroke-miterlimit:1.41420996;stroke-dasharray:none;stroke-opacity:1;paint-order:stroke fill markers"
   id="circle164"
   r="2.7760823" /><path
   inkscape:connector-curvature="0"
   id="path972"
   d="m 14.542627,17.863886 0.03059,8.74e-4 0.02972,0.0026 0.03059,0.0035 0.02972,0.0044 0.02972,0.0053 0.02972,0.0061 0.02885,0.0078 0.02885,0.0078 0.02885,0.0096 0.02798,0.01049 0.02798,0.01137 0.02798,0.01224 0.0271,0.01312 0.02623,0.01398 0.02623,0.01574 0.02623,0.01573 0.02447,0.01661 0.02448,0.01836 0.02361,0.01836 0.0236,0.01923 0.02273,0.02011 0.02098,0.02098 0.02098,0.02186 0.02098,0.02186 0.01923,0.0236 0.01836,0.0236 0.01836,0.02447 0.01661,0.02447 0.01661,0.02535 0.01486,0.02623 0.01398,0.02623 0.01398,0.0271 0.01224,0.02798 0.01137,0.02798 0.01049,0.02798 0.0096,0.02884 0.0088,0.02885 0.007,0.02884 0.007,0.02972 0.0053,0.02972 0.0044,0.02972 0.0035,0.02972 0.0026,0.0306 0.0017,0.02972 v 0.0306 l -8.73e-4,0.02972 -0.0017,0.03059 -0.0026,0.02972 -0.0035,0.03059 -0.0052,0.02972 -0.0061,0.02884 -0.007,0.02972 -0.0078,0.02884 -0.0088,0.02885 -0.0096,0.02885 -0.01137,0.02798 -0.01137,0.02798 -0.01312,0.0271 -0.01311,0.0271 -0.01486,0.02623 -0.01574,0.02623 -0.01661,0.02535 -0.01749,0.02447 -0.01749,0.02447 -0.01923,0.02273 -0.02011,0.02273 -0.0201,0.02273 -0.02098,0.02098 -0.02273,0.02098 -0.02273,0.02011 -0.02273,0.01836 -0.02447,0.01836 -0.02447,0.01749 -0.02535,0.01661 -0.02535,0.01573 -0.0271,0.01486 -0.02623,0.01398 -0.0271,0.01311 -0.02798,0.01137 -0.02798,0.01137 -0.02885,0.0096 -2.622592,0.874198 -0.02885,0.0096 -0.02885,0.0078 -0.02972,0.007 -0.02885,0.0061 -0.02972,0.0052 -0.0306,0.0035 -0.02972,0.0026 -0.02972,0.0026 -0.0306,8.75e-4 -0.02972,-8.75e-4 -0.0306,-8.74e-4 -0.02972,-0.0026 -0.0306,-0.0026 -0.02972,-0.0044 -0.02972,-0.0053 -0.02972,-0.007 -0.02885,-0.007 -0.02885,-0.0088 -0.02885,-0.0096 -0.02798,-0.01049 -0.02797,-0.01137 -0.02798,-0.01224 -0.0271,-0.01311 -0.02623,-0.01398 -0.02623,-0.01486 -0.02623,-0.01661 -0.02448,-0.01661 -0.02448,-0.01749 -0.0236,-0.01836 -0.0236,-0.02011 -0.02273,-0.02011 -0.02098,-0.0201 -0.02098,-0.02186 -0.02098,-0.02273 -0.01923,-0.02273 -0.01836,-0.0236 -0.01836,-0.02447 -0.01661,-0.02535 -0.01661,-0.02535 -0.01486,-0.02623 -0.01399,-0.02623 -0.01399,-0.0271 -0.01224,-0.0271 -0.01136,-0.02798 -0.01049,-0.02884 -0.0096,-0.02798 -0.0087,-0.02972 -0.007,-0.02885 -0.007,-0.02972 -0.0052,-0.02972 -0.0044,-0.02972 -0.0035,-0.02972 -0.0026,-0.03059 -0.0017,-0.02972 v -0.03059 l 8.75e-4,-0.02972 0.0018,-0.02972 0.0026,-0.0306 0.0035,-0.02972 0.0053,-0.02972 0.0061,-0.02972 0.007,-0.02972 0.0079,-0.02885 0.0087,-0.02884 0.0096,-0.02885 0.01136,-0.02798 0.01136,-0.02798 0.01311,-0.0271 0.01311,-0.0271 0.01486,-0.02623 0.01573,-0.02535 0.01661,-0.02535 0.01748,-0.02535 0.01748,-0.02361 0.01923,-0.0236 0.02011,-0.02273 0.02011,-0.02186 0.02098,-0.02186 0.02273,-0.02011 0.02273,-0.02011 0.02273,-0.01923 0.02448,-0.01836 0.02448,-0.01749 0.02535,-0.01661 0.02535,-0.01574 0.0271,-0.01486 0.02623,-0.01312 0.0271,-0.01311 0.02797,-0.01224 0.02797,-0.01137 0.02885,-0.0096 2.622591,-0.874197 0.02885,-0.0088 0.02885,-0.0088 0.02972,-0.007 0.02885,-0.0052 0.02972,-0.0052 0.03059,-0.0044 0.02972,-0.0026 0.02972,-0.0017 0.03059,-8.74e-4 z"
   style="fill:#fea60a;fill-opacity:1;stroke-width:0.87419742" /><path
   inkscape:connector-curvature="0"
   id="path974"
   d="m 25.887087,7.373516 3.496789,-3.4967898 h 0.874198 v 7.4306788 c 0,0 -1.84106,0.92053 -2.438136,1.218631 -0.121514,0.06119 -0.255266,0.09267 -0.390767,0.09267 -0.980849,0 -5.222455,0 -7.663215,0 -0.463324,0 -0.907416,-0.184455 -1.235241,-0.51228 -0.32695,-0.326949 -0.511406,-0.771042 -0.511406,-1.234367 0,-0.0017 0,-0.0017 0,-0.0017 l -7.867776,1.748392 c 0,0 0,-0.309466 0,-0.667886 0,-0.662642 0.374156,-1.267588 0.966862,-1.56394 1.918864,-0.9598692 6.026718,-3.013359 6.026718,-3.013359 z"
   style="stroke-width:0.87419742" /><path
   inkscape:connector-curvature="0"
   id="path959"
   style="fill:none;stroke:#000000;stroke-width:5.2451849px"
   d="m 12.774125,4.7509236 v 1.748395" /><path
   style="clip-rule:evenodd;fill:none;fill-rule:evenodd;stroke:#000000;stroke-width:0.79316634px;stroke-linecap:butt;stroke-linejoin:miter;stroke-miterlimit:1.41420996;stroke-opacity:1"
   d="m 22.399926,16.25886 c -0.07436,-4.982078 1.016244,-4.932505 1.016244,-4.932505"
   id="path531-7"
   inkscape:connector-curvature="0" /><path
   style="clip-rule:evenodd;fill:#b6b6b6;fill-opacity:1;fill-rule:evenodd;stroke:#000000;stroke-width:1.65202665;stroke-linecap:butt;stroke-linejoin:miter;stroke-miterlimit:1.41420996;stroke-dasharray:none;stroke-opacity:1"
   d="m 9.5556249,11.129368 c 0,0 -6.55886,-2.3544124 -8.552919,-1.651538 0.1427175,1.847714 5.9214864,8.291863 5.9214864,8.291863 z"
   id="path638"
   inkscape:connector-curvature="0"
   sodipodi:nodetypes="cccc" /><path
   inkscape:connector-curvature="0"
   id="path961"
   style="fill:none;stroke:#000000;stroke-width:5.2451849px"
   d="M 9.2773354,7.373516 7.5289405,5.6251211" /><path
   sodipodi:nodetypes="cccc"
   inkscape:connector-curvature="0"
   id="path1664"
   d="m 21.205888,8.5466375 c 0,0 3.955623,-5.7371553 5.985449,-6.3288544 0.961442,1.5843123 0.02426,10.1891319 0.02426,10.1891319 z"
   style="clip-rule:evenodd;fill:#b6b6b6;fill-opacity:1;fill-rule:evenodd;stroke:#000000;stroke-width:1.65202665;stroke-linecap:butt;stroke-linejoin:miter;stroke-miterlimit:1.41420996;stroke-dasharray:none;stroke-opacity:1" /><path
   id="path892"
   style="clip-rule:evenodd;fill:#202020;fill-opacity:1;fill-rule:evenodd;stroke:none;stroke-width:0.92406189px;stroke-linecap:butt;stroke-linejoin:miter;stroke-miterlimit:1.41420996;stroke-opacity:1"
   d="m 29.32326,14.933647 c -1.932983,-0.3403 -3.62104,-0.877099 -6.362864,-1.82403 0.553009,0.689998 1.067783,1.399114 2.041907,1.878554 -7.158361,1.506071 -11.656117,0.568997 -13.23156,-0.980115 -0.221832,2.09132 -3.5869635,4.061616 -6.2024762,4.629684 C 5.7880514,13.906543 9.9249344,8.9699716 17.324731,8.2907141 24.724528,7.6114565 30.377646,13.7706 29.32326,14.933647 Z"
   inkscape:connector-curvature="0"
   sodipodi:nodetypes="ccccczc" /><path
   inkscape:connector-curvature="0"
   id="path976"
   d="m 32.006469,12.387913 -3.416364,1.708182 -0.05682,0.0271 -0.06906,0.03147 -0.07081,0.02885 -0.07081,0.0271 -0.07168,0.02447 -0.07256,0.02273 -0.07343,0.0201 -0.07343,0.01923 -0.07343,0.01574 -0.07518,0.01486 -0.07431,0.01137 -0.07606,0.01049 -0.07518,0.0078 -0.07606,0.0053 -0.07606,0.0035 -0.06382,8.75e-4 h -7.685944 l -0.07606,-8.75e-4 -0.08655,-0.0035 -0.08654,-0.0053 -0.08567,-0.0078 -0.08568,-0.0096 -0.0848,-0.01137 -0.0848,-0.01398 -0.0848,-0.01573 -0.08305,-0.01749 -0.08392,-0.0201 -0.08217,-0.02186 -0.08217,-0.0236 -0.0813,-0.02623 -0.08043,-0.0271 -0.08043,-0.02972 -0.07868,-0.03147 -0.07868,-0.03409 -0.07693,-0.03496 -0.07693,-0.03759 -0.07606,-0.03933 -0.07431,-0.04109 -0.07431,-0.04284 -0.07256,-0.04546 -0.07168,-0.04633 -0.07081,-0.04808 -0.06994,-0.0507 -0.06819,-0.05158 -0.06731,-0.0542 -0.06644,-0.05507 -0.06469,-0.0577 -0.06294,-0.05857 -0.06207,-0.06032 -0.06031,-0.06207 -0.05945,-0.06382 -0.05682,-0.06469 -0.05595,-0.06557 -0.05333,-0.06731 -0.05158,-0.06819 -0.03409,-0.04721 -8.5199284,1.893511 v -2.862998 l 0.00175,-0.108399 0.007,-0.122388 0.01049,-0.122388 0.014862,-0.121513 0.019232,-0.120639 0.023603,-0.118891 0.0271,-0.118017 0.031471,-0.116269 0.034968,-0.115394 0.039339,-0.113646 0.042835,-0.112771 0.046333,-0.110149 0.050704,-0.1084 0.0542,-0.106653 0.056823,-0.104903 0.061193,-0.102281 0.064691,-0.100533 0.068187,-0.098784 0.07081,-0.095288 0.074307,-0.093539 0.078678,-0.091791 0.0813,-0.088294 0.083923,-0.085671 0.08742,-0.083049 0.090043,-0.080426 0.093539,-0.076929 0.096162,-0.074307 0.098784,-0.07081 0.1022814,-0.068187 0.104029,-0.063817 0.107527,-0.061193 0.09529,-0.049829 6.410489,-3.2048079 h 8.430761 l 3.496817,-3.4968108 h 3.346428 z M 28.50968,7.2231541 26.610922,9.1219109 h -6.843217 v 1.7387791 0.0096 h 0.0088 7.446413 l 1.286805,-0.64341 z m -10.951947,1.8987568 -0.215926,0.1075263 0.48518,-0.1075263 z"
   style="stroke-width:0.87419742" /><path
   inkscape:connector-curvature="0"
   id="path963"
   style="fill:none;stroke:#000000;stroke-width:5.2451849px"
   d="M 8.4031379,10.870306 H 6.6547431" /><path
   id="path887"
   style="clip-rule:evenodd;fill:none;fill-rule:evenodd;stroke:#000000;stroke-width:0.87312931;stroke-linecap:butt;stroke-linejoin:miter;stroke-miterlimit:1.41420996;stroke-dasharray:none;stroke-opacity:1"
   d="m 5.9011305,19.020676 c 2.6155127,-0.568069 5.6477805,-2.9213 5.8696125,-5.01262 1.575443,1.549112 5.943254,2.067471 13.000545,1.03787 -0.974124,-0.479442 -1.56109,-1.231873 -1.810892,-1.936309 2.741824,0.946931 4.353113,1.869686 6.286094,2.209986"
   inkscape:connector-curvature="0"
   sodipodi:nodetypes="ccccc" /><path
   inkscape:connector-curvature="0"
   id="path978"
   style="fill:#fbc546;stroke-width:0.87419742"
   d="m 25.887087,7.373516 h 0.874197 l 3.19694,3.49679 0.0088,0.582216 -2.147029,1.073514 c -0.121513,0.06119 -0.255265,0.09267 -0.390767,0.09267 0,0 -5.432262,0 -5.914819,0 -0.368037,0 -1.463407,-0.01137 -2.060483,-0.326075 -0.965989,-0.510531 -1.434559,-1.42232 -1.434559,-1.42232 0,0 0,-0.0017 0,-0.0017 l -7.867834,1.75014 c 0,0 0,-0.309466 0,-0.667886 0,-0.662642 0.374156,-1.267588 0.966862,-1.56394 1.918864,-0.9598692 6.026718,-3.013359 6.026718,-3.013359 z" /><path
   inkscape:connector-curvature="0"
   id="path980"
   style="fill:#e59a10;stroke-width:0.87419742"
   d="m 25.887087,7.373516 3.496789,-3.4967898 h 0.874198 v 7.4306788 l -0.291108,0.145117 z" /><path
   inkscape:connector-curvature="0"
   id="path982"
   style="fill:#7e5108;stroke-width:0.87419742"
   d="m 18.019309,10.872054 v -0.0017 c 0,-0.965988 0.782408,-1.7483947 1.748396,-1.7483947 1.808714,0 4.370987,0 4.370987,0 v 1.7483977 h -4.370987 c 0,0 0,0 0,0.0017 0,0.964241 0.782407,1.746647 1.746646,1.746647 0.482558,0 0.875946,0 0.875946,0 h -2.624341 c -0.463324,0 -0.907416,-0.184456 -1.235241,-0.51228 -0.32695,-0.326949 -0.511406,-0.771042 -0.511406,-1.234367 z" /><path
   inkscape:connector-curvature="0"
   id="path984"
   style="fill:none;stroke:#ffffff;stroke-width:1.74839485px"
   d="m 12.774125,4.7509236 v 1.748395" /><path
   inkscape:connector-curvature="0"
   id="path986"
   style="fill:none;stroke:#ffffff;stroke-width:1.74839485px"
   d="M 9.2773354,7.373516 7.5289405,5.6251211" /><path
   inkscape:connector-curvature="0"
   id="path988"
   style="fill:none;stroke:#ffffff;stroke-width:1.74839485px"
   d="M 8.4031379,10.870306 H 6.6547431" /></svg>