<?xml version="1.0" encoding="UTF-8" standalone="no"?>
<svg
   xmlns:dc="http://purl.org/dc/elements/1.1/"
   xmlns:cc="http://creativecommons.org/ns#"
   xmlns:rdf="http://www.w3.org/1999/02/22-rdf-syntax-ns#"
   xmlns:svg="http://www.w3.org/2000/svg"
   xmlns="http://www.w3.org/2000/svg"
   xmlns:sodipodi="http://sodipodi.sourceforge.net/DTD/sodipodi-0.dtd"
   xmlns:inkscape="http://www.inkscape.org/namespaces/inkscape"
   width="100%"
   height="100%"
   viewBox="0 0 32 32"
   version="1.1"
   xml:space="preserve"
   style="fill-rule:evenodd;clip-rule:evenodd;stroke-linejoin:round;stroke-miterlimit:1.41421;"
   id="svg2926"
   sodipodi:docname="jb_teefs.svg"
   inkscape:export-filename="C:\Users\frontdesk\Downloads\jb_teefs.png"
   inkscape:export-xdpi="768"
   inkscape:export-ydpi="768"
   inkscape:version="0.92.1 r15371"><defs
     id="defs2930"><inkscape:perspective
       sodipodi:type="inkscape:persp3d"
       inkscape:vp_x="0 : 16 : 1"
       inkscape:vp_y="0 : 1000 : 0"
       inkscape:vp_z="32 : 16 : 1"
       inkscape:persp3d-origin="16 : 10.666667 : 1"
       id="perspective989" /></defs><sodipodi:namedview
     pagecolor="#ffffff"
     bordercolor="#666666"
     borderopacity="1"
     objecttolerance="10"
     gridtolerance="10"
     guidetolerance="10"
     inkscape:pageopacity="0"
     inkscape:pageshadow="2"
     inkscape:window-width="1600"
     inkscape:window-height="850"
     id="namedview2928"
     showgrid="true"
     units="mm"
     inkscape:zoom="16"
     inkscape:cx="29.050428"
     inkscape:cy="15.816488"
     inkscape:window-x="0"
     inkscape:window-y="24"
     inkscape:window-maximized="1"
     inkscape:current-layer="svg2926"
     showguides="false"
     inkscape:lockguides="false"><inkscape:grid
       type="xygrid"
       id="grid7180"
       units="px"
       spacingx="1"
       spacingy="1"
       empspacing="4" /></sodipodi:namedview><metadata
     id="metadata2911"><rdf:RDF><rdf:Description
         rdf:about=""><dc:title>Mutant Standard emoji v0.1.0</dc:title></rdf:Description><cc:work
         rdf:about=""><cc:license
           rdf:resource="http://creativecommons.org/licenses/by-nc-sa/4.0/" /><cc:attributionName>Dzuk</cc:attributionName><cc:attributionURL>http://mutant.tech/</cc:attributionURL></cc:work><cc:Work
         rdf:about=""><dc:format>image/svg+xml</dc:format><dc:type
           rdf:resource="http://purl.org/dc/dcmitype/StillImage" /><dc:title /></cc:Work></rdf:RDF></metadata><path
     style="clip-rule:evenodd;fill:#202020;fill-opacity:1;fill-rule:evenodd;stroke:#000000;stroke-width:1;stroke-linecap:butt;stroke-linejoin:miter;stroke-miterlimit:2;stroke-dasharray:none;stroke-opacity:1"
     d="M 3.531483,34.053434 C -0.14158,26.410541 1.137001,15.455163 4.52076,11.945623 3.396568,11.794098 1.76046,11.086079 0.490969,9.982774 5.332327,8.819101 12.10453,5.344296 17.109056,0.534104 c 0.09936,1.448515 -0.101249,2.879237 -0.45397,3.980617 17.9102,0.828997 14.912669,20.896032 13.372957,29.585311"
     id="path881"
     inkscape:connector-curvature="0"
     sodipodi:nodetypes="cccccc" /><path
     style="clip-rule:evenodd;fill:#b6b6b6;fill-opacity:1;fill-rule:evenodd;stroke:#000000;stroke-width:1.88976383;stroke-linecap:butt;stroke-linejoin:miter;stroke-miterlimit:1.41420996;stroke-dasharray:none;stroke-opacity:1"
     d="m 13.394496,8.4608954 c 0,0 -4.667124,-6.4623714 -7.003286,-7.0883444 -1.059953,1.835894 0.226828,11.653238 0.226828,11.653238 z"
     id="path638-3"
     inkscape:connector-curvature="0"
     sodipodi:nodetypes="cccc" /><path
     sodipodi:nodetypes="cccc"
     inkscape:connector-curvature="0"
     id="path895-6"
     d="m 18.950731,8.4608847 c 0,0 4.667146,-6.4623707 7.003317,-7.0883437 1.059958,1.835893 -0.226829,11.653237 -0.226829,11.653237 z"
     style="clip-rule:evenodd;fill:#b6b6b6;fill-opacity:1;fill-rule:evenodd;stroke:#000000;stroke-width:1.889768;stroke-linecap:butt;stroke-linejoin:miter;stroke-miterlimit:1.41420996;stroke-dasharray:none;stroke-opacity:1" /><path
     style="clip-rule:evenodd;fill:none;fill-rule:evenodd;stroke-width:0.90730798;stroke-linejoin:round;stroke-miterlimit:1.41420996"
     d="M 1.832574,4.926008 H 30.866431 V 33.959867 H 1.832574 Z"
     id="embarrassed"
     inkscape:connector-curvature="0" /><g
     style="clip-rule:evenodd;fill-rule:evenodd;stroke:#000000;stroke-width:4.16564941;stroke-linejoin:round;stroke-miterlimit:1.41420996;stroke-dasharray:none;stroke-opacity:1;paint-order:stroke fill markers"
     id="emoji"
     transform="matrix(0.90730808,0,0,0.90730808,1.832574,4.926008)"
     inkscape:export-filename="/home/oct2pus/Coding/jadebot/src/art/emoji.png"
     inkscape:export-xdpi="384"
     inkscape:export-ydpi="384"><path
       d="M 28,16 C 28,12.817 26.736,9.765 24.485,7.515 22.235,5.264 19.183,4 16,4 16,4 16,4 16,4 9.373,4 4,9.373 4,16 c 0,0.669 0,1.339 0,2 0,2.652 1.054,5.196 2.929,7.071 C 8.804,26.946 11.348,28 14,28 c 1.322,0 2.678,0 4,0 2.652,0 5.196,-1.054 7.071,-2.929 C 26.946,23.196 28,20.652 28,18 c 0,-0.661 0,-1.331 0,-2 z"
       style="fill:#b6b6b6;fill-opacity:1;stroke:#000000;stroke-width:4.16564941;stroke-miterlimit:1.41420996;stroke-dasharray:none;stroke-opacity:1;paint-order:stroke fill markers"
       id="path162"
       inkscape:connector-curvature="0" /></g><path
     sodipodi:nodetypes="cc"
     inkscape:connector-curvature="0"
     id="path897-6"
     d="M 10.936115,21.000013 C 7.5226339,23.35082 9.0979869,26.767177 10,30"
     style="clip-rule:evenodd;fill:none;fill-rule:evenodd;stroke:#000000;stroke-width:1.08340704px;stroke-linecap:butt;stroke-linejoin:miter;stroke-miterlimit:1.41420996;stroke-opacity:1" /><path
     style="clip-rule:evenodd;fill:none;fill-rule:evenodd;stroke:#000000;stroke-width:0.90730798px;stroke-linecap:butt;stroke-linejoin:miter;stroke-miterlimit:1.41420996;stroke-opacity:1"
     d="M 18.419299,19.329522 C 16.799721,18.350789 15.940301,18.391811 14.35059,19.315342"
     id="path529"
     inkscape:connector-curvature="0"
     sodipodi:nodetypes="cc" /><path
     style="clip-rule:evenodd;fill:none;fill-rule:evenodd;stroke:#000000;stroke-width:0.90730798px;stroke-linecap:butt;stroke-linejoin:miter;stroke-miterlimit:1.41420996;stroke-opacity:1"
     d="M 11.19685,14.969329 C 11.28191,9.270299 10.034361,9.327006 10.034361,9.327006"
     id="path531"
     inkscape:connector-curvature="0" /><path
     style="clip-rule:evenodd;fill:none;fill-rule:evenodd;stroke:#000000;stroke-width:0.90730798px;stroke-linecap:butt;stroke-linejoin:miter;stroke-miterlimit:1.41420996;stroke-opacity:1"
     d="M 21.406763,14.76412 C 21.321703,9.065091 22.569251,9.121797 22.569251,9.121797"
     id="path531-7"
     inkscape:connector-curvature="0" /><path
     id="path892"
     style="clip-rule:evenodd;fill:#202020;fill-opacity:1;fill-rule:evenodd;stroke:none;stroke-width:1px;stroke-linecap:butt;stroke-linejoin:miter;stroke-miterlimit:1.41420996;stroke-opacity:1"
     d="m 27.469561,13.167244 c -2.091832,-0.368266 -3.293265,-0.804867 -6.260408,-1.829616 0.598455,0.746701 1.155532,1.514091 2.209708,2.032932 C 15.672236,15.000398 10.804859,13.986316 9.099949,12.3099 8.859887,14.573081 6.693391,15.871498 3.862939,16.48625 3.58768,14.573157 7.102454,6.857794 15.110357,6.122716 23.118259,5.387638 28.610595,11.90862 27.469561,13.167244 Z"
     inkscape:connector-curvature="0"
     sodipodi:nodetypes="ccccczc" /><path
     sodipodi:nodetypes="cc"
     inkscape:connector-curvature="0"
     id="path897"
     d="M 21.063885,21.000013 C 24.477366,23.35082 22.902013,26.767177 22,30"
     style="clip-rule:evenodd;fill:none;fill-rule:evenodd;stroke:#000000;stroke-width:1.08340704px;stroke-linecap:butt;stroke-linejoin:miter;stroke-miterlimit:1.41420996;stroke-opacity:1" /><circle
     cx="11.359306"
     cy="18.081976"
     style="clip-rule:evenodd;fill:#d30100;fill-opacity:1;fill-rule:evenodd;stroke:#000000;stroke-width:1;stroke-linejoin:round;stroke-miterlimit:1.41420996;stroke-dasharray:none;stroke-opacity:1;paint-order:stroke fill markers"
     id="circle164"
     r="3.1755781" /><path
     id="path887"
     style="clip-rule:evenodd;fill:none;fill-rule:evenodd;stroke:#000000;stroke-width:0.94488192;stroke-linecap:butt;stroke-linejoin:miter;stroke-miterlimit:1.41420996;stroke-dasharray:none;stroke-opacity:1"
     d="M 4.014708,16.948758 C 6.84516,16.334006 8.859887,14.573081 9.099949,12.3099 c 1.70491,1.676416 6.431662,2.237373 14.068912,1.12316 -1.054176,-0.518841 -1.689378,-1.333106 -1.959708,-2.095432 2.967143,1.024749 4.069464,1.895059 6.161296,2.263325"
     inkscape:connector-curvature="0"
     sodipodi:nodetypes="ccccc" /><circle
     cx="21.339697"
     cy="18.081976"
     style="clip-rule:evenodd;fill:#d30100;fill-opacity:1;fill-rule:evenodd;stroke:#000000;stroke-width:1;stroke-linejoin:round;stroke-miterlimit:1.41420996;stroke-dasharray:none;stroke-opacity:1;paint-order:stroke fill markers"
     id="circle168"
     r="3.1755781" /><path
     style="clip-rule:evenodd;fill-rule:evenodd;stroke-width:1.16535532;stroke-linejoin:round;stroke-miterlimit:1.41420996"
     d="m 20.635937,23.984291 0.07348,0.0037 0.07051,0.0044 0.07198,0.0082 0.07051,0.0091 0.07051,0.01183 0.06899,0.0136 0.06752,0.0154 0.06599,0.0172 0.06601,0.01992 0.06302,0.02083 0.06151,0.02354 0.06,0.02445 0.05698,0.02624 0.05552,0.02807 0.054,0.02989 0.04949,0.03169 0.048,0.03259 0.0465,0.0344 0.04199,0.03531 0.03899,0.03621 0.03751,0.03804 0.03301,0.03893 0.0315,0.03984 0.02698,0.03984 0.024,0.04164 0.02093,0.04164 0.01642,0.04256 0.01505,0.04346 0.01069,0.04256 0.006,0.04436 0.0044,0.04345 v 0.04345 l -0.0044,0.04346 -0.006,0.04436 -0.01069,0.04256 -0.01505,0.04345 -0.01642,0.04256 -0.02093,0.04165 -0.024,0.04164 -0.02698,0.03983 -0.0315,0.03984 -0.03301,0.03893 -0.03751,0.03803 -0.03899,0.0362 -0.04199,0.03531 -0.0465,0.03441 -0.048,0.03259 -0.04949,0.03169 -0.054,0.02987 -0.05552,0.02806 -0.05698,0.02625 -0.06,0.02445 -0.06151,0.02353 -0.06302,0.02084 -0.06601,0.01992 -0.06599,0.0172 -0.06752,0.0154 -0.06899,0.0136 -0.07051,0.01184 -0.07051,0.0091 -0.07198,0.0082 -0.07051,0.0044 -0.07348,0.0037 -0.07198,9.04e-4 h -9.000142 l -0.07198,-9.04e-4 -0.07348,-0.0037 -0.07051,-0.0044 -0.07198,-0.0082 -0.07051,-0.0091 -0.07051,-0.01184 -0.069,-0.0136 -0.0675,-0.0154 -0.066,-0.0172 -0.066,-0.01992 -0.06301,-0.02084 -0.06151,-0.02353 -0.05998,-0.02445 -0.05698,-0.02625 -0.05551,-0.02806 -0.054,-0.02987 -0.04949,-0.03169 -0.048,-0.03259 -0.04651,-0.03441 -0.04201,-0.03531 -0.03899,-0.0362 -0.03751,-0.03803 -0.03301,-0.03893 -0.03151,-0.03984 -0.02698,-0.03983 -0.02401,-0.04164 -0.02097,-0.04165 -0.01642,-0.04256 -0.01505,-0.04345 -0.01069,-0.04256 -0.006,-0.04436 -0.0043,-0.04346 v -0.04345 l 0.0044,-0.04345 0.006,-0.04436 0.01069,-0.04256 0.01505,-0.04346 0.01642,-0.04256 0.02097,-0.04164 0.02401,-0.04164 0.02698,-0.03984 0.0315,-0.03984 0.03301,-0.03893 0.0375,-0.03804 0.03899,-0.03621 0.04201,-0.03531 0.04651,-0.0344 0.048,-0.03259 0.04949,-0.03169 0.054,-0.02989 0.05551,-0.02807 0.05698,-0.02624 0.05998,-0.02445 0.06151,-0.02354 0.06301,-0.02083 0.066,-0.01992 0.066,-0.0172 0.06749,-0.0154 0.069,-0.0136 0.07051,-0.01183 0.07051,-0.0091 0.07198,-0.0082 0.07051,-0.0044 0.07348,-0.0037 0.07198,-9.07e-4 h 9.000143 z"
     id="path172"
     inkscape:connector-curvature="0" /><ellipse
     cx="21.448626"
     cy="-17.993711"
     id="circle166-3"
     style="clip-rule:evenodd;fill:#fea60b;fill-opacity:1;fill-rule:evenodd;stroke-width:0.93104577;stroke-linejoin:round;stroke-miterlimit:1.41420996"
     rx="0.97891939"
     ry="1.9924054"
     transform="scale(1,-1)" /><path
     style="clip-rule:evenodd;fill:#ffffff;fill-rule:evenodd;stroke:#000000;stroke-width:1.01078582px;stroke-linecap:round;stroke-linejoin:round;stroke-miterlimit:1.41420996;stroke-opacity:1"
     d="m 16.255174,24.965766 c -0.153588,1.026924 -0.660463,1.903268 -1.586252,1.894534 -0.809356,-0.0076 -1.605037,-0.860287 -1.605037,-1.860287 1,0 1.62321,0.003 3,0 z"
     id="path224"
     inkscape:connector-curvature="0"
     sodipodi:nodetypes="csccc"
     inkscape:export-filename="/home/oct2pus/Coding/jadebot/src/art/jb_embarassed.png"
     inkscape:export-xdpi="384"
     inkscape:export-ydpi="384" /><path
     style="clip-rule:evenodd;fill:#ffffff;fill-rule:evenodd;stroke:#000000;stroke-width:1.01078582px;stroke-linecap:round;stroke-linejoin:round;stroke-miterlimit:1.41420996;stroke-opacity:1"
     d="m 16.255174,24.965766 c 0.153588,1.026924 0.660463,1.903268 1.586252,1.894534 0.809356,-0.0076 1.605037,-0.860287 1.605037,-1.860287 -1,0 -1.62321,0.003 -3,0 z"
     id="path224-5"
     inkscape:connector-curvature="0"
     sodipodi:nodetypes="csccc"
     inkscape:export-filename="/home/oct2pus/Coding/jadebot/src/art/jb_embarassed.png"
     inkscape:export-xdpi="384"
     inkscape:export-ydpi="384" /><ellipse
     cx="11.386126"
     cy="-17.993711"
     id="circle166-3-5"
     style="clip-rule:evenodd;fill:#fea60b;fill-opacity:1;fill-rule:evenodd;stroke-width:0.93104577;stroke-linejoin:round;stroke-miterlimit:1.41420996"
     rx="0.97891939"
     ry="1.9924054"
     transform="scale(1,-1)" /></svg>